<?xml version="1.0"?>
<svg xmlns="http://www.w3.org/2000/svg" xmlns:xlink="http://www.w3.org/1999/xlink" xmlns:svgjs="http://svgjs.com/svgjs" version="1.1" width="512" height="512" x="0" y="0" viewBox="0 0 512.002 512.002" style="enable-background:new 0 0 512 512" xml:space="preserve" class=""><g>
<g xmlns="http://www.w3.org/2000/svg">
	<g>
		<path d="M314.061,301.18c-10.429,0-20.711-3.608-28.952-10.16c-4.279-3.401-9.663-5.134-15.131-4.874    c-5.331,0.251-10.215,2.474-13.977,5.944c-3.762-3.472-8.646-5.693-13.977-5.944c-5.466-0.26-10.854,1.474-15.131,4.874    c-8.241,6.552-18.523,10.16-28.952,10.16H82.825v165.647h115.116c13.818-0.001,27.428-4.771,38.322-13.43    c1.006-0.8,2.68-1.73,5.053-1.62c3.744,0.177,7.155,3.963,7.155,7.946v14.633h15.059v-14.633c0-3.983,3.41-7.769,7.155-7.946    c2.356-0.111,4.047,0.819,5.053,1.62c10.895,8.661,24.504,13.43,38.323,13.43h115.116V301.18H314.061z M248.472,438.047    c-2.036-0.751-4.202-1.207-6.447-1.312c-5.466-0.259-10.854,1.474-15.131,4.874c-8.241,6.552-18.523,10.16-28.952,10.16H97.884    v-135.53h100.058c13.819,0,27.428-4.77,38.323-13.429c1.006-0.8,2.68-1.731,5.053-1.62c3.744,0.177,7.155,3.963,7.155,7.946    V438.047z M414.119,451.768H314.061c-10.429,0-20.711-3.608-28.952-10.16c-4-3.179-8.956-4.899-14.062-4.899    c-0.355,0-0.713,0.008-1.069,0.025c-2.245,0.105-4.411,0.561-6.447,1.312V309.134c0-3.983,3.41-7.769,7.155-7.946    c2.356-0.108,4.047,0.82,5.053,1.62c10.895,8.661,24.504,13.43,38.323,13.43h100.058V451.768z" fill="#ffffff" data-original="#000000" style="" class=""/>
	</g>
</g>
<g xmlns="http://www.w3.org/2000/svg">
	<g>
		<path d="M444.236,316.238v165.647H301.178v-7.529h-15.059v7.529c0,8.303-6.755,15.059-15.059,15.059h-7.529v-7.529h-15.059v7.529    h-7.529c-8.303,0-15.059-6.755-15.059-15.059v-7.529h-15.059v7.529H67.766V316.238H52.708v180.706h162.169    c5.215,8.993,14.942,15.059,26.066,15.059h30.118c11.123,0,20.85-6.066,26.066-15.059h162.169V316.238H444.236z" fill="#ffffff" data-original="#000000" style="" class=""/>
	</g>
</g>
<g xmlns="http://www.w3.org/2000/svg">
	<g>
		<rect x="112.942" y="331.296" width="30.118" height="15.059" fill="#ffffff" data-original="#000000" style="" class=""/>
	</g>
</g>
<g xmlns="http://www.w3.org/2000/svg">
	<g>
		<rect x="158.118" y="331.296" width="15.059" height="15.059" fill="#ffffff" data-original="#000000" style="" class=""/>
	</g>
</g>
<g xmlns="http://www.w3.org/2000/svg">
	<g>
		<rect x="188.236" y="331.296" width="37.647" height="15.059" fill="#ffffff" data-original="#000000" style="" class=""/>
	</g>
</g>
<g xmlns="http://www.w3.org/2000/svg">
	<g>
		<rect x="112.942" y="361.414" width="112.941" height="15.059" fill="#ffffff" data-original="#000000" style="" class=""/>
	</g>
</g>
<g xmlns="http://www.w3.org/2000/svg">
	<g>
		<rect x="112.942" y="391.531" width="37.647" height="15.059" fill="#ffffff" data-original="#000000" style="" class=""/>
	</g>
</g>
<g xmlns="http://www.w3.org/2000/svg">
	<g>
		<rect x="165.647" y="391.531" width="60.235" height="15.059" fill="#ffffff" data-original="#000000" style="" class=""/>
	</g>
</g>
<g xmlns="http://www.w3.org/2000/svg">
	<g>
		<rect x="112.942" y="421.649" width="60.235" height="15.059" fill="#ffffff" data-original="#000000" style="" class=""/>
	</g>
</g>
<g xmlns="http://www.w3.org/2000/svg">
	<g>
		<rect x="368.941" y="331.296" width="30.118" height="15.059" fill="#ffffff" data-original="#000000" style="" class=""/>
	</g>
</g>
<g xmlns="http://www.w3.org/2000/svg">
	<g>
		<rect x="338.824" y="331.296" width="15.059" height="15.059" fill="#ffffff" data-original="#000000" style="" class=""/>
	</g>
</g>
<g xmlns="http://www.w3.org/2000/svg">
	<g>
		<rect x="286.118" y="331.296" width="37.647" height="15.059" fill="#ffffff" data-original="#000000" style="" class=""/>
	</g>
</g>
<g xmlns="http://www.w3.org/2000/svg">
	<g>
		<rect x="286.118" y="361.414" width="112.941" height="15.059" fill="#ffffff" data-original="#000000" style="" class=""/>
	</g>
</g>
<g xmlns="http://www.w3.org/2000/svg">
	<g>
		<rect x="361.412" y="391.531" width="37.647" height="15.059" fill="#ffffff" data-original="#000000" style="" class=""/>
	</g>
</g>
<g xmlns="http://www.w3.org/2000/svg">
	<g>
		<rect x="286.118" y="391.531" width="60.235" height="15.059" fill="#ffffff" data-original="#000000" style="" class=""/>
	</g>
</g>
<g xmlns="http://www.w3.org/2000/svg">
	<g>
		<rect x="338.824" y="421.649" width="60.235" height="15.059" fill="#ffffff" data-original="#000000" style="" class=""/>
	</g>
</g>
<g xmlns="http://www.w3.org/2000/svg">
	<g>
		<path d="M308.994,87.257c-1.803-2.774-4.854-4.43-8.163-4.43h-22.698l6.671-73.639l-0.135-0.896    c-0.687-4.57-4.385-7.97-8.997-8.27c-4.447-0.291-8.421,2.39-9.841,6.562l-43.093,108.295l-0.243,0.713    c-0.835,2.92-0.242,6.112,1.587,8.537c1.828,2.428,4.734,3.876,7.772,3.876h18.512l-11.588,81.114    c-0.695,4.862,2.226,9.377,6.946,10.734c0.917,0.264,1.84,0.391,2.747,0.391c3.759,0,7.233-2.177,8.839-5.793l52.416-117.934    C311.071,93.492,310.796,90.031,308.994,87.257z M259.101,173.346l7.042-49.291c0.398-2.795-0.435-5.621-2.284-7.753    c-1.85-2.132-4.531-3.355-7.353-3.355h-16.791l26.631-66.926l-3.867,42.681l0.135,0.894c0.72,4.805,4.769,8.292,9.628,8.292    h20.397L259.101,173.346z" fill="#ffffff" data-original="#000000" style="" class=""/>
	</g>
</g>
<g xmlns="http://www.w3.org/2000/svg">
	<g>
		<path d="M419.397,167.261c-0.898-3.184-3.321-5.671-6.479-6.653l-21.675-6.738l28.23-68.34l0.138-0.896    c0.701-4.568-1.822-8.914-6.138-10.567c-4.157-1.595-8.749-0.217-11.343,3.344l-73.299,90.621l-0.443,0.61    c-1.664,2.541-2.046,5.765-1.02,8.624c1.026,2.859,3.371,5.104,6.271,6.006l17.679,5.495l-35.146,74.019    c-2.106,4.435-0.657,9.613,3.446,12.31c1.663,1.093,3.526,1.624,5.37,1.624c2.708,0,5.374-1.145,7.299-3.343l85.061-97.058    C419.53,173.831,420.296,170.445,419.397,167.261z M346.198,234.658l21.355-44.978c1.211-2.551,1.255-5.497,0.121-8.084    c-1.134-2.586-3.33-4.55-6.026-5.387l-16.034-4.984l45.301-56.004l-16.363,39.612l-0.138,0.894    c-0.737,4.801,2.094,9.332,6.732,10.774l19.477,6.055L346.198,234.658z" fill="#ffffff" data-original="#000000" style="" class=""/>
	</g>
</g>
<g xmlns="http://www.w3.org/2000/svg">
	<g>
		<path d="M198.571,262.786l-35.146-74.019l17.678-5.495h0.001c2.9-0.902,5.245-3.147,6.271-6.006    c1.026-2.859,0.646-6.083-1.02-8.624l-0.207-0.316l-73.536-90.915c-2.594-3.561-7.186-4.938-11.343-3.344    c-4.316,1.654-6.839,5.999-6.138,10.567l0.138,0.896l28.23,68.34l-21.674,6.738c-3.159,0.983-5.582,3.47-6.48,6.654    s-0.133,6.571,2.048,9.059l85.061,97.057c1.925,2.197,4.591,3.343,7.299,3.343c1.843,0,3.706-0.531,5.369-1.623    C199.227,272.4,200.676,267.223,198.571,262.786z M114.116,172.557l19.479-6.056c4.638-1.442,7.469-5.973,6.732-10.774    l-0.138-0.894l-16.363-39.612l45.299,56.004l-16.036,4.984c-2.696,0.838-4.891,2.802-6.025,5.388    c-1.133,2.586-1.089,5.532,0.121,8.084l21.355,44.978L114.116,172.557z" fill="#ffffff" data-original="#000000" style="" class=""/>
	</g>
</g>
<g xmlns="http://www.w3.org/2000/svg">
	<g>
		<rect x="143.059" y="269.183" width="15.059" height="15.059" fill="#ffffff" data-original="#000000" style="" class=""/>
	</g>
</g>
<g xmlns="http://www.w3.org/2000/svg">
	<g>
		<rect x="195.765" y="208.948" width="15.059" height="15.059" fill="#ffffff" data-original="#000000" style="" class=""/>
	</g>
</g>
<g xmlns="http://www.w3.org/2000/svg">
	<g>
		<rect x="165.647" y="103.537" width="15.059" height="15.059" fill="#ffffff" data-original="#000000" style="" class=""/>
	</g>
</g>
<g xmlns="http://www.w3.org/2000/svg">
	<g>
		<rect x="203.294" y="73.419" width="15.059" height="15.059" fill="#ffffff" data-original="#000000" style="" class=""/>
	</g>
</g>
<g xmlns="http://www.w3.org/2000/svg">
	<g>
		<rect x="301.177" y="43.302" width="15.059" height="15.059" fill="#ffffff" data-original="#000000" style="" class=""/>
	</g>
</g>
<g xmlns="http://www.w3.org/2000/svg">
	<g>
		<rect x="316.235" y="58.36" width="15.059" height="15.059" fill="#ffffff" data-original="#000000" style="" class=""/>
	</g>
</g>
<g xmlns="http://www.w3.org/2000/svg">
	<g>
		<rect x="444.235" y="126.125" width="15.059" height="15.059" fill="#ffffff" data-original="#000000" style="" class=""/>
	</g>
</g>
<g xmlns="http://www.w3.org/2000/svg">
	<g>
		<rect x="406.588" y="35.768" width="15.059" height="15.059" fill="#ffffff" data-original="#000000" style="" class=""/>
	</g>
</g>
<g xmlns="http://www.w3.org/2000/svg">
	<g>
		<rect x="393.417" y="246.595" width="15.059" height="15.059" fill="#ffffff" data-original="#000000" style="" class=""/>
	</g>
</g>
<g xmlns="http://www.w3.org/2000/svg">
</g>
<g xmlns="http://www.w3.org/2000/svg">
</g>
<g xmlns="http://www.w3.org/2000/svg">
</g>
<g xmlns="http://www.w3.org/2000/svg">
</g>
<g xmlns="http://www.w3.org/2000/svg">
</g>
<g xmlns="http://www.w3.org/2000/svg">
</g>
<g xmlns="http://www.w3.org/2000/svg">
</g>
<g xmlns="http://www.w3.org/2000/svg">
</g>
<g xmlns="http://www.w3.org/2000/svg">
</g>
<g xmlns="http://www.w3.org/2000/svg">
</g>
<g xmlns="http://www.w3.org/2000/svg">
</g>
<g xmlns="http://www.w3.org/2000/svg">
</g>
<g xmlns="http://www.w3.org/2000/svg">
</g>
<g xmlns="http://www.w3.org/2000/svg">
</g>
<g xmlns="http://www.w3.org/2000/svg">
</g>
</g></svg>
