<?xml version="1.0" encoding="iso-8859-1"?>
<!-- Generator: Adobe Illustrator 19.0.0, SVG Export Plug-In . SVG Version: 6.00 Build 0)  -->
<svg version="1.1" id="Capa_1" xmlns="http://www.w3.org/2000/svg" xmlns:xlink="http://www.w3.org/1999/xlink" x="0px" y="0px"
	 viewBox="0 0 512 512" style="enable-background:new 0 0 512 512;" xml:space="preserve">
<path style="fill:#FFC9BD;" d="M166.9,268.197v151.527c0,46.762,37.909,84.671,84.671,84.671l0,0
	c46.762,0,84.671-37.909,84.671-84.671V260.401"/>
<path style="fill:#FCAFA2;" d="M212.909,419.724V268.197l123.333-5.678v-2.118L166.9,268.197v151.527
	c0,46.762,37.909,84.671,84.671,84.671l0,0c7.977,0,15.687-1.128,23.004-3.189C238.997,491.18,212.909,458.509,212.909,419.724z"/>
<g>
	<path style="fill:#F9D366;" d="M124.67,93.101l6.048-1.226c7.982-1.619,7.982-13.027,0-14.645l-6.048-1.226
		c-15.238-3.089-27.146-14.998-30.235-30.235l-1.226-6.048c-1.619-7.982-13.027-7.982-14.645,0l-1.226,6.048
		C74.249,61.006,62.34,72.914,47.103,76.003l-6.048,1.226c-7.982,1.619-7.982,13.027,0,14.645l6.048,1.226
		c15.238,3.089,27.146,14.998,30.235,30.235l1.226,6.048c1.619,7.982,13.027,7.982,14.645,0l1.226-6.048
		C97.524,108.098,109.432,96.19,124.67,93.101z"/>
	<path style="fill:#F9D366;" d="M476.042,173.783l19.395-3.932c9.157-1.857,9.157-14.942,0-16.798l-19.395-3.932
		c-19.113-3.875-34.05-18.812-37.925-37.925l-3.932-19.395c-1.857-9.157-14.942-9.157-16.798,0l-3.932,19.395
		c-3.875,19.113-18.812,34.05-37.925,37.925l-19.395,3.932c-9.157,1.857-9.157,14.942,0,16.798l19.395,3.932
		c19.113,3.875,34.05,18.812,37.925,37.925l3.932,19.395c1.857,9.157,14.942,9.157,16.798,0l3.932-19.395
		C441.993,192.595,456.931,177.657,476.042,173.783z"/>
</g>
<path style="fill:#EF8C33;" d="M166.9,268.197l4.228,5.886c38.192,53.169,99.65,84.693,165.114,84.693l0,0V448.6
	c0,28.069,22.753,50.822,50.822,50.822h11.04c19.044,0,34.481-15.437,34.481-34.481l0,0c0-19.044-15.437-34.481-34.481-34.481
	H379.85V268.196"/>
<g>
	<path style="fill:#D87625;" d="M170.703,268.199l4.229,5.882c5.821,8.103,12.17,15.699,19.005,22.757h109.092
		c22.949,0,44.933,9.234,61,25.62l19.625,20.016v-45.637v-28.639H170.703z"/>
	<path style="fill:#D87625;" d="M123.293,268.197v162.263h-18.255c-19.044,0-34.481,15.437-34.481,34.481l0,0
		c0,19.044,15.437,34.481,34.481,34.481h11.04c28.069,0,50.822-22.753,50.822-50.822V268.197H123.293z"/>
</g>
<polygon style="fill:#CF8BFC;" points="246.833,7.606 129.758,268.197 363.909,268.197 "/>
<polygon style="fill:#9966CC;" points="246.833,7.606 129.758,268.197 209.486,268.197 "/>
<path d="M39.542,99.329l6.049,1.226c12.269,2.488,21.804,12.022,24.292,24.292l1.226,6.049c1.442,7.113,7.519,12.082,14.777,12.082
	s13.335-4.968,14.777-12.082l1.226-6.049c2.488-12.269,12.023-21.804,24.292-24.292l0,0l6.048-1.226
	c7.113-1.442,12.082-7.519,12.082-14.776c0-7.258-4.967-13.335-12.083-14.778l-6.048-1.226
	c-12.269-2.488-21.804-12.023-24.292-24.293l-1.226-6.048c-1.442-7.113-7.519-12.082-14.777-12.082s-13.334,4.968-14.776,12.082
	l-1.226,6.049C67.395,56.525,57.86,66.06,45.591,68.548l-6.049,1.226c-7.113,1.443-12.082,7.52-12.082,14.778
	C27.46,91.81,32.428,97.886,39.542,99.329z M48.613,83.457c18.272-3.705,32.473-17.906,36.179-36.178l1.094-5.398l1.094,5.397
	c3.705,18.273,17.906,32.474,36.179,36.179l5.398,1.094l-5.399,1.094l0,0c-18.273,3.705-32.474,17.905-36.179,36.178l-1.094,5.397
	l-1.094-5.397c-3.705-18.273-17.906-32.474-36.178-36.178l-5.399-1.094L48.613,83.457z"/>
<path d="M49.794,320.228c-4.201,0-7.606,3.406-7.606,7.606v20.156c0,4.201,3.406,7.606,7.606,7.606s7.606-3.406,7.606-7.606v-20.156
	C57.4,323.633,53.994,320.228,49.794,320.228z"/>
<path d="M49.794,374.493c-4.201,0-7.606,3.406-7.606,7.606v20.156c0,4.201,3.406,7.606,7.606,7.606s7.606-3.406,7.606-7.606v-20.156
	C57.4,377.898,53.994,374.493,49.794,374.493z"/>
<path d="M87.004,372.65c4.201,0,7.606-3.406,7.606-7.606s-3.406-7.606-7.606-7.606H66.848c-4.201,0-7.606,3.405-7.606,7.606
	s3.406,7.606,7.606,7.606H87.004z"/>
<path d="M32.739,357.438H12.582c-4.201,0-7.606,3.405-7.606,7.606s3.406,7.606,7.606,7.606h20.156c4.201,0,7.606-3.406,7.606-7.606
	S36.939,357.438,32.739,357.438z"/>
<path d="M496.949,145.597l-19.395-3.932c-16.153-3.275-28.706-15.828-31.982-31.981l-3.932-19.395
	c-1.548-7.631-8.067-12.962-15.854-12.962c-7.788,0-14.307,5.33-15.854,12.962L406,109.684
	c-3.275,16.153-15.828,28.706-31.981,31.981l-19.395,3.932c-7.631,1.548-12.962,8.067-12.962,15.854s5.33,14.307,12.962,15.854
	l19.395,3.932c16.153,3.275,28.706,15.829,31.981,31.982l3.932,19.395c1.548,7.631,8.068,12.962,15.854,12.962
	c7.787,0,14.307-5.329,15.854-12.962l3.932-19.395c3.275-16.153,15.829-28.706,31.982-31.982l19.395-3.932
	c7.631-1.548,12.962-8.067,12.962-15.854S504.58,147.145,496.949,145.597z M493.926,162.396l-19.395,3.932
	c-22.157,4.493-39.376,21.712-43.868,43.868l-3.932,19.395c-0.073,0.362-0.156,0.772-0.945,0.772c-0.789,0-0.871-0.41-0.945-0.772
	l-3.932-19.395c-4.492-22.156-21.711-39.375-43.868-43.868l-19.395-3.932c-0.362-0.073-0.773-0.156-0.773-0.945
	s0.411-0.871,0.773-0.945l19.395-3.932c22.157-4.493,39.375-21.711,43.868-43.868l3.932-19.395c0.073-0.362,0.156-0.773,0.945-0.773
	c0.789,0,0.871,0.411,0.945,0.773l3.932,19.395c4.493,22.157,21.712,39.375,43.868,43.868l19.395,3.932
	c0.362,0.073,0.773,0.156,0.773,0.945S494.288,162.323,493.926,162.396z"/>
<path d="M493.447,260.591H368.83l-45.59-101.475c-1.721-3.831-6.224-5.542-10.055-3.821c-3.831,1.721-5.542,6.224-3.821,10.055
	l42.789,95.242H141.514L246.833,26.166l48.015,106.874c1.721,3.83,6.221,5.541,10.055,3.821c3.831-1.722,5.542-6.224,3.821-10.055
	L253.772,4.489C252.545,1.758,249.829,0,246.833,0s-5.711,1.758-6.938,4.489L124.836,260.591h-1.544H9.695
	c-4.201,0-7.606,3.406-7.606,7.606s3.406,7.606,7.606,7.606h105.992v92.098c0,4.201,3.406,7.606,7.606,7.606
	s7.606-3.406,7.606-7.606v-92.098h28.395v172.797c0,23.829-19.386,43.216-43.216,43.216h-11.04
	c-14.819,0-26.875-12.056-26.875-26.875c0-14.819,12.056-26.875,26.875-26.875h18.255c4.201,0,7.606-3.405,7.606-7.606v-37.205
	c0-4.201-3.406-7.606-7.606-7.606s-7.606,3.406-7.606,7.606v29.599h-10.649c-23.207,0-42.087,18.88-42.087,42.087
	c0,23.207,18.88,42.087,42.087,42.087h11.04c26.121,0,48.292-17.232,55.747-40.925C187.838,493.53,217.586,512,251.571,512
	s63.733-18.47,79.746-45.896c7.455,23.692,29.625,40.925,55.747,40.925h11.04c23.207,0,42.087-18.88,42.087-42.087
	c0-23.207-18.88-42.087-42.087-42.087h-10.649V275.803h105.991c4.201,0,7.606-3.405,7.606-7.606S497.648,260.591,493.447,260.591z
	 M251.571,496.788c-42.494,0-77.065-34.571-77.065-77.065V290.796c38.226,45.647,94.414,73.278,154.13,75.448v53.478
	C328.636,462.218,294.065,496.788,251.571,496.788z M379.85,438.067h18.255c14.819,0,26.875,12.056,26.875,26.875
	c0,14.819-12.056,26.875-26.875,26.875h-11.04c-23.829,0-43.216-19.386-43.216-43.216v-28.865c0-0.004,0-0.008,0-0.012
	c0-0.001,0-0.002,0-0.003v-60.943c0-4.201-3.406-7.606-7.606-7.606c-60.278,0-117.379-28.043-154.301-75.367h190.304v154.657
	C372.243,434.661,375.649,438.067,379.85,438.067z"/>
<g>
</g>
<g>
</g>
<g>
</g>
<g>
</g>
<g>
</g>
<g>
</g>
<g>
</g>
<g>
</g>
<g>
</g>
<g>
</g>
<g>
</g>
<g>
</g>
<g>
</g>
<g>
</g>
<g>
</g>
</svg>
